
        <svg xmlns="http://www.w3.org/2000/svg" xmlns:xlink="http://www.w3.org/1999/xlink" version="1.1" width="3176.607139821765" height="615.4163158260013" viewBox="0 0 3176.607139821765 615.4163158260013">
			
			<g transform="scale(8.830356991088244) translate(10, 10)">
				<defs id="SvgjsDefs1455"/><g id="SvgjsG1456" featureKey="5TMTKC-0" transform="matrix(0.9273379032765234,0,0,0.9273379032765234,-1.3659687775139928,-21.520731400540846)" fill="#000"><g xmlns="http://www.w3.org/2000/svg"><path d="M31.697,46.568h8.661v6.864h-8.661v8.661h-6.863v-8.661h-8.661v-6.864h8.661v-8.66h6.863V46.568z M96.544,52.605H85.232   l-2.619-5.017c-0.361-0.697-1.092-1.11-1.891-1.062c-0.783,0.054-1.464,0.567-1.729,1.306L75.579,57.3l-2.826-13.947   c-0.173-0.852-0.882-1.494-1.747-1.578c-0.865-0.087-1.688,0.401-2.023,1.203l-3.719,8.833h-5.559c-1.096,0-1.982,0.89-1.982,1.983   c0,1.097,0.887,1.981,1.982,1.981h6.875c0.798,0,1.52-0.479,1.826-1.213l1.736-4.122l2.955,14.584   c0.176,0.871,0.911,1.521,1.799,1.584c0.047,0.005,0.096,0.005,0.144,0.005c0.832,0,1.579-0.52,1.864-1.312l4.285-11.875   l1.08,2.073c0.342,0.655,1.021,1.065,1.76,1.065h12.515c1.097,0,1.981-0.887,1.981-1.98S97.641,52.605,96.544,52.605z    M84.029,58.555h2.601l-10.263,12.58c-1.297,1.717-3.348,2.827-5.661,2.827c-2.315,0-4.366-1.11-5.659-2.827L53.939,57.669   c-3.299,11.06-13.543,19.125-25.675,19.125C13.468,76.794,1.473,64.798,1.473,50c0-14.797,11.995-26.793,26.791-26.793   c7.759,0,14.744,3.302,19.637,8.571c2.751-3.49,7.007-5.739,11.796-5.739c4.305,0,8.176,1.819,10.912,4.718   c2.738-2.899,6.609-4.718,10.912-4.718c8.297,0,15.021,6.726,15.021,15.02c0,3.549-1.236,6.803-3.294,9.373h0.007l-0.087,0.104   c-0.021,0.03-0.045,0.058-0.069,0.086h-6.666l-2.062-3.948c-0.685-1.316-2.035-2.132-3.522-2.132c-0.082,0-0.166,0.001-0.26,0.009   c-1.57,0.105-2.932,1.132-3.465,2.612l-1.012,2.803l-1.418-7.004c-0.348-1.717-1.752-2.985-3.488-3.157   c-1.752-0.174-3.381,0.809-4.055,2.406l-3.207,7.62h-4.241c-2.188,0-3.966,1.78-3.966,3.966s1.777,3.965,3.966,3.965h6.875   c1.065,0,2.062-0.425,2.789-1.146l1.782,8.808c0.354,1.736,1.832,3.039,3.588,3.169c0.102,0.007,0.203,0.011,0.301,0.011   c1.668,0,3.167-1.055,3.729-2.619l2.948-8.17C82.377,58.286,83.182,58.555,84.029,58.555z M51.1,54.227l-2.844-3.449   c-0.1-0.111-0.191-0.227-0.282-0.342l-0.152-0.182h0.014c-1.974-2.543-3.161-5.725-3.161-9.195c0-2.165,0.467-4.217,1.292-6.077   c-4.266-5.019-10.614-8.218-17.702-8.218C15.453,26.764,5.028,37.187,5.028,50c0,12.812,10.425,23.236,23.236,23.236   C39.633,73.236,49.104,65.023,51.1,54.227z"/></g></g><g id="SvgjsG1457" featureKey="nameLeftFeature-0" transform="matrix(2.5714283962639133,0,0,2.5714283962639133,103.57142900934022,-7.142853727146305)" fill="#000"><path d="M9.26 19.5 l-5.76 -10.26 l0 10.26 l-1 0 l0 -14 l7.9 14 l-1.14 0 z M11 19.5 l-7.9 -14 l1.14 0 l5.76 10.26 l0 -10.26 l1 0 l0 14 z M8.5 5.5 l1 0 l0 8.3 l-1 -1.74 l0 -6.56 z M5 19.5 l-1 0 l0 -8.34 l1 1.74 l0 6.6 z M14.44 19.5 l4.66 -14 l1.04 0 l-3.04 9.26 l3.44 0 l0.36 1 l-4.14 0 l-1.26 3.74 l-1.06 0 z M24.259999999999998 19.5 l-3.6 -10.8 l-1.86 5.56 l-1.06 0 l2.96 -8.76 l4.6 14 l-1.04 0 z M22.64 19.5 l-0.74 -2.24 l-3.76 0 l-0.7 -1 l4.16 0 l-1.46 -4.46 l0.52 -1.54 l3.08 9.24 l-1.1 0 z M17.06 19.5 l-1.06 0 l1.06 -3 l0.64 1 z M27.180000000000003 5.5 l1.06 0 l3.6 10.8 l3.6 -10.8 l1.04 0 l-4.64 14 z M29.8 5.5 l2.54 7.7 l-0.5 1.56 l-3.1 -9.26 l1.06 0 z M33.400000000000006 19.5 l-1.06 0 l4.66 -14 l1.04 0 z M41.480000000000004 5.5 l1 0 l0 14 l-1 0 l0 -14 z M42.980000000000004 5.5 l1 0 l0 14 l-1 0 l0 -14 z"/></g><g id="SvgjsG1458" featureKey="nameRightFeature-0" transform="matrix(2.319587560449554,0,0,2.319587560449554,225.52061865932566,-3.9948456116849673)" fill="#000"><path d="M8 10.26 c0 -1.2 -0.6 -2 -1.5 -2 s-1.5 0.8 -1.5 2 l0 4.5 c0 1.2 0.6 1.98 1.5 1.98 s1.5 -0.78 1.5 -1.98 l0 -0.5 l3.5 0 l0 0.5 c0 3.3 -2 5.5 -5 5.5 s-5 -2.2 -5 -5.5 l0 -4.5 c0 -3.3 2 -5.52 5 -5.52 s5 2.22 5 5.52 l0 0.48 l-3.5 0 l0 -0.48 z M2 14.76 c0 3 1.8 4.98 4.5 4.98 c1.26 0 2.3 -0.44 3.1 -1.2 l-0.76 -0.74 c-0.6 0.6 -1.38 0.96 -2.34 0.96 c-2.1 0 -3.5 -1.6 -3.5 -4 l0 -4.5 c0 -2.4 1.4 -4.02 3.5 -4.02 s3.5 1.62 3.5 4.02 l1 0 c0 -3 -1.8 -5 -4.5 -5 s-4.5 2 -4.5 5 l0 4.5 z M6.5 7.74 c1.2 0 2 1.02 2 2.52 l1 0 c0 -2.1 -1.2 -3.5 -3 -3.5 c-0.8 0 -1.44 0.24 -2 0.74 l0.74 0.7 c0.36 -0.3 0.76 -0.46 1.26 -0.46 z M6.5 17.259999999999998 c-1.2 0 -2 -1 -2 -2.5 l0 -4.5 c0 -0.66 0.14 -1.2 0.4 -1.66 l-0.7 -0.7 c-0.46 0.6 -0.7 1.4 -0.7 2.36 l0 4.5 c0 2.1 1.2 3.48 3 3.48 s3 -1.38 3 -3.48 l-1 0 c0 1.5 -0.8 2.5 -2 2.5 z M10 14.76 c0 1.08 -0.3 1.98 -0.8 2.7 l0.74 0.7 c0.66 -0.86 1.06 -2.02 1.06 -3.4 l-1 0 z M17.64 17.759999999999998 l-0.74 2.24 l-3.64 0 l4.98 -15 l2.26 0 l5 15 l-3.66 0 l-0.78 -2.24 l-3.42 0 z M16.6 14.76 l3.04 -9.26 l-1.04 0 l-4.66 14 l1.06 0 l1.26 -3.74 l4.14 0 l-0.36 -1 l-3.44 0 z M20.16 8.7 l3.6 10.8 l1.04 0 l-4.6 -14 l-2.96 8.76 l1.06 0 z M16.94 16.259999999999998 l0.7 1 l3.76 0 l0.74 2.24 l1.1 0 l-3.08 -9.24 l-0.52 1.54 l1.46 4.46 l-4.16 0 z M19.34 12.66 l-0.54 1.6 l1.1 0 z M17.2 17.5 l-0.64 -1 l-1.06 3 l1.06 0 z M37.74 10 c0 1.8 -0.76 3.26 -1.96 4.1 l1.96 5.9 l-3.64 0 l-1.72 -5 l-1.14 0 l0 5 l-3.5 0 l0 -15 l5 0 c3 0 5 2 5 5 z M33.28 12.96 c1.5 -0.2 2.46 -1.36 2.46 -2.96 c0 -1.8 -1.2 -3 -3 -3 l-2.7 0 l1.06 1 l1.64 0 c1.2 0 2 0.8 2 2 s-0.8 2 -2 2 l-3.5 0 l0 -5.5 l3.5 0 c2.1 0 3.5 1.4 3.5 3.5 c0 0.9 -0.3 1.7 -0.76 2.3 l0.76 0.76 c0.64 -0.82 1 -1.86 1 -3.06 c0 -2.7 -1.8 -4.5 -4.5 -4.5 l-4.5 0 l0 14 l1 0 l0 -6.5 l3 0 l2.16 6.5 l1.08 0 z M29.740000000000002 11.5 l1 0 l0 -3.1 l-1 -1 l0 4.1 z M32.74 11.5 c0.9 0 1.5 -0.6 1.5 -1.5 s-0.6 -1.5 -1.5 -1.5 l-1.5 0 l0 3 l1.5 0 z M35.18 13.9 c0.26 -0.16 0.46 -0.3 0.66 -0.5 l-0.7 -0.7 c-0.36 0.3 -0.74 0.5 -1.2 0.66 l2.04 6.14 l1.06 0 z M32.24 14.5 l-0.36 -1 l-1.8 0 l1.06 1 l1.1 0 z M30.740000000000002 19.5 l0 -4.64 l-1 -1 l0 5.64 l1 0 z M44.24 14.5 l0 2 l5 0 l0 3.5 l-8.5 0 l0 -15 l8.5 0 l0 3.5 l-5 0 l0 2.5 l4 0 l0 3.5 l-4 0 z M41.24 5.5 l0 12.5 l7.5 0 l0 -1 l-6.5 0 l0 -4.5 l5.5 0 l0 -1 l-5.5 0 l0 -5 l6.5 0 l0 -1 l-7.5 0 z M48.74 7 l-5.66 0 l1.06 1 l4.6 0 l0 -1 z M42.74 11 l1 0 l0 -2.66 l-1 -0.98 l0 3.64 z M47.74 13 l-4.66 0 l1.06 1 l3.6 0 l0 -1 z M42.74 16.5 l1 0 l0 -2.16 l-1 -0.98 l0 3.14 z M48.74 18.5 l-7.5 0 l0 1 l7.5 0 l0 -1 z"/></g>
			</g>
		</svg>
	